<svg width="64" height="64" viewBox="0 0 120 120" fill="none" xmlns="http://www.w3.org/2000/svg">
  <defs>
    <linearGradient id="bg" x1="0" y1="0" x2="120" y2="120" gradientUnits="userSpaceOnUse">
      <stop offset="0" stop-color="#1e1b2e"/>
      <stop offset="1" stop-color="#0b0a14"/>
    </linearGradient>
    <linearGradient id="steelLight" x1="30" y1="8" x2="90" y2="80" gradientUnits="userSpaceOnUse">
      <stop offset="0" stop-color="#ffffff"/>
      <stop offset="0.4" stop-color="#d7deeb"/>
      <stop offset="1" stop-color="#9aa7bd"/>
    </linearGradient>
    <linearGradient id="steelDark" x1="40" y1="40" x2="100" y2="116" gradientUnits="userSpaceOnUse">
      <stop offset="0" stop-color="#7c8aa3"/>
      <stop offset="0.6" stop-color="#4a566b"/>
      <stop offset="1" stop-color="#2b3445"/>
    </linearGradient>
    <linearGradient id="glow" x1="60" y1="22" x2="60" y2="98" gradientUnits="userSpaceOnUse">
      <stop offset="0" stop-color="#a5f3fc"/>
      <stop offset="0.5" stop-color="#22d3ee"/>
      <stop offset="1" stop-color="#0ea5e9"/>
    </linearGradient>
    <linearGradient id="purple" x1="20" y1="10" x2="100" y2="110" gradientUnits="userSpaceOnUse">
      <stop offset="0" stop-color="#d8b4fe"/>
      <stop offset="0.5" stop-color="#a855f7"/>
      <stop offset="1" stop-color="#6d28d9"/>
    </linearGradient>
    <radialGradient id="cavity" cx="50%" cy="50%" r="55%">
      <stop offset="0" stop-color="#0b3a5c"/>
      <stop offset="0.7" stop-color="#0a2740"/>
      <stop offset="1" stop-color="#06121f"/>
    </radialGradient>
    <radialGradient id="core" cx="42%" cy="38%" r="62%">
      <stop offset="0" stop-color="#ffffff"/>
      <stop offset="0.3" stop-color="#cdeeff"/>
      <stop offset="0.65" stop-color="#38bdf8"/>
      <stop offset="1" stop-color="#075985"/>
    </radialGradient>
    <radialGradient id="aura" cx="50%" cy="50%" r="50%">
      <stop offset="0" stop-color="#a855f7" stop-opacity="0.9"/>
      <stop offset="0.55" stop-color="#7c3aed" stop-opacity="0.4"/>
      <stop offset="1" stop-color="#7c3aed" stop-opacity="0"/>
    </radialGradient>
  </defs>

  <rect width="120" height="120" rx="26" fill="url(#bg)"/>
  <circle cx="60" cy="60" r="52" fill="url(#aura)"/>

  <polygon points="60,8 106,33 106,87 60,112 14,87 14,33" fill="url(#steelDark)" stroke="url(#purple)" stroke-width="3"/>
  <polygon points="60,8 106,33 60,60 14,33" fill="url(#steelLight)"/>
  <polygon points="14,33 60,60 14,87" fill="url(#steelLight)" opacity="0.55"/>

  <g stroke="#0ea5e9" stroke-width="1.4" stroke-linecap="round" opacity="0.5">
    <path d="M88 26 L80 39"/><path d="M102 52 L92 57"/><path d="M102 68 L92 63"/>
    <path d="M88 94 L80 81"/><path d="M32 94 L40 81"/><path d="M18 68 L28 63"/>
    <path d="M18 52 L28 57"/><path d="M32 26 L40 39"/>
  </g>
  <g fill="#67e8f9">
    <circle cx="80" cy="39" r="1.9"/><circle cx="92" cy="57" r="1.9"/><circle cx="92" cy="63" r="1.9"/>
    <circle cx="80" cy="81" r="1.9"/><circle cx="40" cy="81" r="1.9"/><circle cx="28" cy="63" r="1.9"/>
    <circle cx="28" cy="57" r="1.9"/><circle cx="40" cy="39" r="1.9"/>
  </g>

  <polygon points="60,23 93,42 93,78 60,97 27,78 27,42" fill="none" stroke="url(#glow)" stroke-width="3.2"/>
  <polygon points="60,34 84,48 84,72 60,86 36,72 36,48" fill="url(#cavity)" stroke="url(#glow)" stroke-width="2"/>
  <circle cx="60" cy="60" r="13.5" fill="url(#core)"/>
  <circle cx="60" cy="60" r="13.5" fill="none" stroke="#e0f2fe" stroke-width="1.5" opacity="0.8"/>
  <ellipse cx="55.5" cy="55" rx="4.5" ry="3.2" fill="#ffffff" opacity="0.92"/>
</svg>
